<?xml version="1.0" encoding="UTF-8"?>
<svg xmlns="http://www.w3.org/2000/svg" xmlns:xlink="http://www.w3.org/1999/xlink" xmlns:v="https://vecta.io/nano" width="1056" height="422.4">
  <style><![CDATA[.B{fill-rule:evenodd}.C{fill:none}.D{stroke-linejoin:round}.E{stroke-miterlimit:10}.F{stroke:#666}.G{fill:#ec572d}.H{fill:#a6a6a6}.I{clip-rule:evenodd}.J{fill:#f2f2f2}.K{stroke:#646464}.L{stroke-dasharray:1, 3}.M{fill:#7f7f7f}.N{fill-opacity:.098}]]></style>
  <defs>
    <clipPath id="A">
      <path d="M26.64 410.16h136.8v22.8H26.64z" class="I"></path>
    </clipPath>
    <clipPath id="B">
      <path d="M0 0h92.78v15.622H0z"></path>
    </clipPath>
    <clipPath id="C">
      <path d="M.085.057h92.64v15.48H.085z" class="I"></path>
    </clipPath>
    <clipPath id="D">
      <path d="M.085.057h92.64v15.48H.085z" class="I"></path>
    </clipPath>
    <clipPath id="E">
      <path d="M0 0h960v540H0z" class="I"></path>
    </clipPath>
    <clipPath id="F">
      <path d="M0 540h960V0H0" class="I"></path>
    </clipPath>
    <clipPath id="G">
      <path d="M0 540h960V0H0" class="I"></path>
    </clipPath>
    <clipPath id="H">
      <path d="M0 0h960v540H0z" class="I"></path>
    </clipPath>
    <clipPath id="I">
      <path d="M0 0h960v540H0z" class="I"></path>
    </clipPath>
    <clipPath id="J">
      <path d="M0 0h960v540H0z" class="I"></path>
    </clipPath>
    <clipPath id="K">
      <path d="M0 0h960v540H0z" class="I"></path>
    </clipPath>
    <clipPath id="L">
      <path d="M0 0h960v540H0z" class="I"></path>
    </clipPath>
    <clipPath id="M">
      <path d="M0 0h960v540H0z" class="I"></path>
    </clipPath>
    <clipPath id="N">
      <path d="M0 0h960v540H0z" class="I"></path>
    </clipPath>
    <clipPath id="O">
      <path d="M0 540h960V0H0" class="I"></path>
    </clipPath>
    <clipPath id="P">
      <path d="M0 0h960v540H0z" class="I"></path>
    </clipPath>
    <clipPath id="Q">
      <path d="M0 0h960v540H0z" class="I"></path>
    </clipPath>
    <clipPath id="R">
      <path d="M0 0h960v540H0z" class="I"></path>
    </clipPath>
    <clipPath id="S">
      <path d="M0 0h960v540H0z" class="I"></path>
    </clipPath>
    <path id="T" d="M182.543 285.301l3.164-9.946h.121l3.17 9.946h3.068l-4.513-13.091h-3.567l-4.519 13.091z"></path>
    <path id="U" d="M195.898 272.21h-2.966l4.519 13.091h3.567l4.513-13.091h-2.966l-3.279 10.099h-.102zm-.185 5.146h7.006v-2.161h-7.006z"></path>
    <path id="V" d="M218.656 280.718h-2.8q-.077.543-.313.965-.237.428-.607.729-.371.3-.857.46-.479.16-1.042.16-1.016 0-1.771-.505-.754-.499-1.17-1.457-.415-.952-.415-2.314 0-1.4.415-2.352.422-.952 1.176-1.438.754-.486 1.745-.486.556 0 1.029.147.479.147.85.428.371.288.614.697.249.409.345.933l2.8-.013q-.109-.901-.543-1.739-.428-.831-1.157-1.489-.722-.652-1.726-1.036-.997-.377-2.256-.377-1.751 0-3.132.793-1.374.793-2.173 2.295-.793 1.502-.793 3.637 0 2.141.805 3.643.805 1.502 2.186 2.288 1.381.793 3.107.793 1.138 0 2.109-.32.978-.32 1.732-.933.754-.607 1.227-1.489.479-.882.614-2.02z"></path>
    <path id="W" d="M228.728 285.301h2.768v-8.501q0-1.432-.684-2.506-.678-1.074-1.898-1.675-1.221-.594-2.844-.594-1.63 0-2.851.594-1.221.601-1.898 1.675-.678 1.074-.678 2.506v8.501h2.768v-8.265q0-.748.326-1.33.332-.582.933-.914.601-.332 1.4-.332.805 0 1.4.332.601.332.927.914.332.582.332 1.33z"></path>
    <path id="X" d="M246.814 285.301h3.413l3.605-8.795h.153l3.605 8.795h3.413V272.21h-2.685v8.521h-.109l-3.388-8.457h-1.828l-3.388 8.489h-.109v-8.553h-2.685z"></path>
    <path id="Y" d="M144.48 291.12v-21.6h10.8l-21.6-21.6-21.6 21.6h10.8v21.6z"></path>
    <path id="Z" d="M65.4 323.88h40.68v17.4H65.4z"></path>
    <path id="a" d="M65.4 347.4h40.68v17.52H65.4z"></path>
    <path id="b" d="M113.4 370.92h40.68v17.52H113.4z"></path>
    <path id="c" d="M161.4 323.88h40.68v17.4H161.4z"></path>
    <path id="d" d="M161.4 347.4h40.68v17.52H161.4z"></path>
    <path id="e" d="M113.4 323.88h40.68v17.4H113.4z"></path>
    <path id="f" d="M82.786 307.226v-8.736h-2.299v8.736h-3.164v1.777h8.627v-1.777z"></path>
    <path id="g" d="M89.029 298.334q-1.223 0-1.909.662-.686.67-.686 1.878 0 1.309.81 1.987.818.686 2.439.709l1.738.031v.429q0 .803-.273 1.216-.273.413-.881.413-.569 0-.842-.288-.265-.281-.327-.904l-2.283.109q.421 2.502 3.546 2.502 1.574 0 2.408-.772.842-.772.842-2.268v-3.055q0-.709.156-.982.164-.265.538-.265.249 0 .483.047v-1.185q-.195-.047-.351-.086-.156-.039-.312-.062-.156-.023-.335-.039-.171-.016-.405-.016-.826 0-1.223.405-.39.405-.468 1.192h-.047q-.491-.881-1.122-1.27-.623-.39-1.496-.39zm2.392 4.06l-1.044-.016q-.701-.016-1.021-.148-.312-.125-.475-.413-.164-.281-.164-.772 0-1.185.935-1.185.756 0 1.262.592.507.6.507 1.512z"></path>
    <path id="h" d="M95.459 298.49q.062 1.06.062 1.839v9.726h2.19v-3.07l-.016-1.387h.016q.32.709.959 1.099.647.39 1.512.39 1.449 0 2.229-1.146.779-1.146.779-3.242 0-1.979-.826-3.172-.826-1.192-2.252-1.192-.81 0-1.426.382-.608.39-.959 1.146h-.031q0-.257-.039-.717-.031-.452-.078-.655zm2.221 4.263q0-.935.203-1.582.21-.647.584-.998.382-.343.873-.343.748 0 1.153.717.413.717.413 2.151 0 1.426-.405 2.159-.397.74-1.177.74-.764 0-1.208-.748-.436-.748-.436-2.096z"></path>
    <path id="i" d="M109.316 299.971h2.751v-1.481h-8.019v1.481h3.078v8.603h-2.26v1.481h4.45z"></path>
    <path id="j" d="M116.766 298.334q-1.964 0-3.031 1.153-1.068 1.161-1.068 3.257 0 1.403.499 2.369.507.966 1.434 1.465.927.499 2.198.499 1.847 0 2.868-1.231 1.021-1.231 1.021-3.499v-.062h-5.72q0-1.146.507-1.816.514-.67 1.403-.67.577 0 1.021.242.444.249.6.764l2.065-.179q-.429-1.099-1.426-1.699-.998-.592-2.369-.592zm0 7.364q-.803 0-1.278-.546-.475-.538-.507-1.496h3.585q-.055.935-.538 1.488-.475.553-1.262.553z"></path>
    <path id="k" d="M138.308 305.683q0-1.044-.475-1.839-.475-.787-1.379-1.216-.896-.429-2.151-.429h-1.535v-3.709h-2.299v10.513h3.741q2.003 0 3.047-.849 1.052-.842 1.052-2.47zm-2.315-.039q0 .849-.514 1.208-.507.366-1.527.366h-1.185v-3.25h1.247q1.029 0 1.504.421.475.429.475 1.255z"></path>
    <path id="l" d="M151.728 295.108q-1.449 0-2.361.6-.912.6-1.122 1.668l2.19.257q.117-.507.483-.803.366-.296.873-.296.787 0 1.192.569.405.561.405 1.675v.46l.016.896h-.016q-.725-1.551-2.556-1.551-1.395 0-2.166 1.083-.772 1.091-.772 3.109 0 2.042.803 3.156.803 1.122 2.299 1.122.818 0 1.434-.382.616-.374.959-1.107h.039q0 .273.031.74.039.468.078.616h2.073q-.047-.842-.047-1.948v-6.227q0-1.769-.998-2.704-.99-.935-2.837-.935zm1.675 7.715q0 1.278-.436 2.003-.436.725-1.192.725-.779 0-1.192-.709-.405-.701-.405-2.065 0-1.356.421-2.018.421-.655 1.161-.655.795 0 1.216.733.429.733.429 1.987z"></path>
    <path id="m" d="M180.619 304.997l-.538-2.525h1.847v-1.161h-2.104l-.608-2.821h-1.208l.616 2.821h-2.408l-.608-2.821h-1.192l.608 2.821h-1.356v1.161h1.605l.546 2.525h-1.769v1.153h2.018l.616 2.852h1.192l-.608-2.852h2.4l.616 2.852h1.192l-.608-2.852h1.442v-1.153zm-3.608 0l-.546-2.525h2.408l.546 2.525z"></path>
    <path id="n" d="M183.129 298.49v1.629h3.031v6.944q-.304-.639-1.216-1.075-.904-.436-1.901-.436v1.668q1.083 0 1.94.475.857.475 1.294 1.309h2.073v-8.884h2.517v-1.629z"></path>
    <path id="o" d="M238.92 323.88h40.8v17.4h-40.8z"></path>
    <path id="p" d="M238.92 347.4h40.8v17.52h-40.8z"></path>
    <path id="q" d="M356.569 298.49v1.52q.39.857 1.107 1.714.725.865 2.104 1.987 1.075.881 1.395 1.216.32.335.499.647.187.32.187.647 0 .561-.366.881-.366.32-1.075.32-.701 0-1.075-.382-.366-.374-.475-1.13l-2.205.125q.187 1.527 1.138 2.33.959.803 2.603.803 1.699 0 2.689-.779.99-.772.99-2.073 0-.849-.538-1.66-.53-.803-1.598-1.637-1.512-1.169-2.034-1.683-.522-.514-.756-1.044h5.097v-1.8z"></path>
    <path id="r" d="M544.108 298.334q-1.964 0-3.031 1.153-1.068 1.161-1.068 3.257 0 1.403.499 2.369.507.966 1.434 1.465.927.499 2.198.499 1.847 0 2.868-1.231 1.021-1.231 1.021-3.499v-.062h-5.72q0-1.146.507-1.816.514-.67 1.403-.67.577 0 1.021.242.444.249.6.764l2.065-.179q-.429-1.099-1.426-1.699-.997-.592-2.369-.592zm0 7.364q-.803 0-1.278-.546-.475-.538-.507-1.496h3.585q-.055.935-.538 1.488-.475.553-1.262.553z"></path>
    <path id="s" d="M535.68 172.56h40.68v17.4h-40.68z"></path>
    <path id="t" d="M535.68 196.08h40.68v17.52h-40.68z"></path>
    <path id="u" d="M650.546 272.21v13.091h2.768v-10.809h5.612v-2.282z"></path>
    <path id="v" d="M557.649 415.209q-1.258 0-2.171.555-.907.561-1.4 1.564-.487 1.009-.487 2.346 0 1.338.487 2.358.493 1.026 1.372 1.598.884.578 2.063.578.68 0 1.343-.227.663-.227 1.207-.737.544-.504.867-1.338.323-.833.323-2.052v-.567h-6.71v1.156h5.35q0 .737-.295 1.315-.289.578-.827.912-.533.334-1.258.334-.799 0-1.383-.397-.578-.391-.89-1.02-.312-.629-.312-1.349v-.771q0-.986.34-1.672.346-.68.958-1.037.612-.351 1.423-.351.527 0 .952.147.431.153.742.453.312.306.482.759l1.292-.363q-.204-.657-.686-1.156-.482-.493-1.19-.771-.708-.272-1.593-.272z"></path>
    <path id="w" d="M586.328 425.75v1.247h8.705v-1.247h-3.65v-10.36h-1.406v10.36z"></path>
    <path id="x" d="M602.514 418.949v5.146h1.338v-8.705h-1.338v1.474h-.091q-.306-.663-.952-1.128-.646-.459-1.632-.459-.816 0-1.451.357-.635.363-.998 1.088-.363.731-.363 1.842v5.532h1.338v-5.441q0-.952.533-1.519.538-.567 1.372-.567.499 0 1.015.255.521.255.873.782.357.527.357 1.343z"></path>
    <path id="y" d="M606.221 412.125v11.97h1.292v-1.383h.159q.147.227.408.578.266.357.759.635.499.283 1.349.283 1.1 0 1.938-.55.839-.55 1.309-1.559.47-1.009.47-2.38 0-1.383-.47-2.397-.47-1.009-1.304-1.564-.833-.55-1.921-.55-.839 0-1.343.278-.504.283-.776.64-.272.363-.419.601h-.113v-4.602zm1.315 7.617q0-.986.289-1.74.289-.748.844-1.173.555-.419 1.36-.419.839 0 1.4.442.567.448.85 1.202.289.759.289 1.689 0 .918-.283 1.655-.278.742-.844 1.173-.561.436-1.411.436-.816 0-1.372-.414-.555-.408-.839-1.145-.283-.731-.283-1.706z"></path>
    <path id="z" d="M617.278 426.997V415.39h-1.338v11.607z"></path>
  </defs>
  <g transform="matrix(1.333333 0 0 -1.333333 -21.759999 592.79999)">
    <path d="M16.32 127.8h792v316.8h-792z" fill="#eee" class="B"></path>
    <g opacity=".1" class="C">
      <path d="M47.893 152.165v2.332c0 1.23.059 1.721.756 2.484s.684 1.647.219 2.525-1.134 1.051-1.854.557c-1.512 2.177-4.879 3.666-8.778 3.666s-7.274-1.504-8.789-3.666c-.728.515-1.42.325-1.875-.542s-.481-1.763.216-2.525.756-1.254.756-2.499v-2.347c0-2.046-1.304-2.418-1.304-5.218-.007-1.616.452-3.188 1.304-4.467v-2.68c0-2.951 4.985-4.545 9.676-4.545s9.673 1.605 9.673 4.557v2.68c.854 1.278 1.314 2.851 1.307 4.467 0 2.788-1.307 3.16-1.307 5.221zm-5.095 5.906c.514.042 1.317-.042 1.325-.155.018-.325-1.34-.024-1.134-.5a1.18 1.18 0 0 0 .111-.503c.026-.426-.329-.798-.795-.837s-.957.265-.983.688.579 1.245 1.476 1.307zm-9.159 0c.895-.074 1.505-.893 1.479-1.307s-.514-.727-.985-.688-.82.411-.792.837c-.001.176.036.349.108.503.206.476-1.152.176-1.132.5.008.125.815.208 1.322.155zm12.531-18.274c0-1.147-3.122-2.811-7.95-2.811s-7.95 1.665-7.95 2.811v.703c.435-.379.892-.724 1.366-1.033.338-.252.74-.363 1.141-.317a1.69 1.69 0 0 1 1.064.573 20.11 20.11 0 0 1 4.372-.474 20.09 20.09 0 0 1 4.372.474 1.69 1.69 0 0 1 1.064-.573c.4-.047.802.065 1.141.317.479.31.94.655 1.381 1.033zm-4.27 1.561a18.1 18.1 0 0 0-3.688-.357c-1.237-.008-2.472.112-3.691.357.08.893-.273 1.861-1.286 2.382a9.1 9.1 0 0 0-.514.298c1.791-.519 3.63-.775 5.476-.762 1.855-.014 3.704.243 5.504.765-.165-.107-.334-.206-.514-.298-1.006-.524-1.355-1.48-1.286-2.385zm4.27 6.465c0-1.147-3.122-2.811-7.95-2.811s-7.95 1.665-7.95 2.811v1.435c1.862-1.23 4.964-1.876 7.95-1.876s6.088.646 7.95 1.876zm-2.058 2.302c-1.561-.652-3.657-1.01-5.9-1.01-4.853 0-7.95 1.665-7.95 2.811 0 .277.18.596.514.893-.44.613-.597 1.269-.303 1.811s.856.375.666-.045c-.484-1.045.874-1.855 2.001-1.915 1.631-.086.854-.649 2.49-.649 1.474 0 2.433.828 2.433 1.531 0 .506-1.523.298-1.523 1.772 0 .712.805.646 1.68.646s1.68.065 1.68-.646c0-1.489-1.523-1.266-1.523-1.772 0-.703.959-1.531 2.433-1.531s.926.625 2.076.625c.931 0 2.528.864 2.083 1.939-.175.429.378.578.666.045s.159-1.075-.188-1.638c.468-.36.723-.727.723-1.051 0-.599-.785-1.287-2.05-1.817z" fill="#000"></path>
    </g>
    <g clip-path="url(#A)">
      <g clip-path="url(#B)" transform="matrix(1.474457 0 0 1.459532 26.64 410.16)">
        <g class="M">
          <path d="M65.676 12.94c.927.513 2.025.548 3.06.566 1.119-.014 2.346-.105 3.261-.825.573-.443.816-1.175.817-1.878-.355-.002-.709 0-1.063 0-.129.69-.432 1.432-1.151 1.687-1.201.456-2.581.428-3.805.071-.981-.272-1.34-1.691-.584-2.376.542-.432 1.263-.491 1.916-.636 1.338-.285 2.757-.332 4.003-.942 1.329-.666 1.278-2.791.107-3.589-.972-.667-2.208-.741-3.351-.75-1.245.019-2.603.136-3.615.941-.648.513-.849 1.367-.887 2.154l1.091.026c.079-.837.472-1.707 1.306-2.025 1.305-.507 2.814-.501 4.146-.098.932.263 1.293 1.449.87 2.262-.201.367-.595.567-.982.674-1.628.44-3.351.463-4.941 1.05-1.5.55-1.55 2.942-.198 3.69m11.817-.299c-1.214-.282-2.345-1.128-2.738-2.343-.415-1.308-.271-2.884.677-3.934.834-.945 2.118-1.371 3.352-1.391 1.365-.045 2.859.346 3.758 1.437 1.227 1.578 1.086 4.208-.557 5.453-1.24 1.009-2.986 1.101-4.492.778m-1.697.203c1.242.633 2.681.732 4.049.619 1.299-.108 2.622-.588 3.501-1.584 1.09-1.174 1.285-2.95.876-4.449-.222-.84-.812-1.503-1.445-2.067l1.518-1.063-.688-.627-1.559 1.051c-.421 0-.807-.255-1.227-.314-1.17-.207-2.386-.222-3.555.008-1.273.255-2.497.969-3.184 2.094-.68 1.1-.768 2.487-.456 3.719.288 1.14 1.129 2.091 2.17 2.613"></path>
        </g>
        <g clip-path="url(#C)" class="M">
          <path d="M85.137 13.281l1.036.027.011-8.073 6.553-.027-.004-.718c-2.532-.002-5.066-.011-7.599.006l.003 8.786"></path>
        </g>
        <g class="M">
          <path d="M18.625 12.577l.003-3.663 3.911.011c.727.023 1.579.273 1.884 1.005.24.655.202 1.47-.242 2.032-.432.518-1.155.614-1.789.617-1.256.001-2.511.001-3.767-.002m-.885.704l4.952.024c.765.009 1.588-.132 2.179-.656.801-.693.941-1.914.597-2.871-.406-1.035-1.572-1.52-2.619-1.545-1.411-.018-2.824.008-4.236-.011l.008-3.738h-.881v8.796m23.514-1.129h.906l.005-1.884h1.543l.024-.61c-.52-.01-1.041-.01-1.561.002l-.012-3.7c.009-.28-.018-.652.268-.813.401-.201.864-.128 1.293-.104l.003-.588c-.661-.075-1.374-.125-1.987.18-.371.194-.494.636-.486 1.026l-.003 4.004a64.48 64.48 0 0 0-1.164.005l.007.597 1.151.015.013 1.872"></path>
          <path d="M28.444 9.781c-.847-.099-1.681-.633-1.959-1.469-.31-.928-.178-2.086.576-2.772.597-.548 1.451-.675 2.231-.638.708.029 1.459.216 1.965.745.553.543.645 1.378.573 2.114-.056.636-.362 1.281-.923 1.62-.73.446-1.632.495-2.463.399m-.442.585c1.147.17 2.401.131 3.433-.453 1.551-.873 1.769-3.216.689-4.536-.927-1.029-2.445-1.168-3.746-1.059-1.056.064-2.137.588-2.637 1.557-.453.896-.459 2.01-.036 2.918.426.883 1.355 1.416 2.297 1.573m6.009-.422c.597.381 1.332.441 2.022.489.973.023 2.038.029 2.881-.531.47-.294.639-.851.705-1.37l-.951-.015c-.066.431-.241.886-.673 1.066-.777.357-1.676.318-2.504.2-.514-.073-1.143-.366-1.158-.964-.045-.425.344-.723.714-.815 1.092-.274 2.234-.247 3.333-.483.491-.115 1.02-.312 1.299-.76a1.48 1.48 0 0 0-.516-1.962c-.801-.474-1.77-.498-2.676-.502-.882.035-1.842.05-2.595.575-.462.319-.621.891-.708 1.416l.986-.006c.016-.716.618-1.223 1.293-1.308.981-.141 2.065-.222 2.979.234.633.318.571 1.343-.098 1.579-1.357.396-2.836.266-4.174.752-.965.384-.98 1.864-.159 2.406M47.2 9.756c-.652-.102-1.306-.42-1.669-.992-.422-.68-.428-1.567-.144-2.301.301-.761 1.122-1.149 1.894-1.229.981-.141 2.126-.013 2.826.761.785.954.699 2.61-.351 3.345-.741.502-1.696.533-2.556.415m-.759.535c.935.209 1.935.224 2.858-.055.526-.143.894-.563 1.291-.905l.042.921.87.008.035-5.342c.022-.737-.122-1.546-.696-2.061-.755-.684-1.83-.795-2.804-.814-.865.018-1.777.038-2.56.449-.548.284-.81.883-.918 1.46l.888.018c.187-.382.331-.846.744-1.047.618-.297 1.326-.306 1.998-.301.748.026 1.606.17 2.077.819.455.621.351 1.433.351 2.154-.937-.949-2.355-1.126-3.622-.973-.795.091-1.626.375-2.145 1.016-.63.779-.708 1.878-.474 2.82.244.961 1.129 1.625 2.065 1.836m7.853-.09c.657.288 1.392.234 2.092.232l.005-.733c-.72.011-1.523.107-2.142-.344-.605-.414-.813-1.185-.824-1.883l-.004-2.991-.89.003-.007 5.764.892.003.017-.996c.22.364.453.764.861.944m4.029-.722c-.653-.338-.959-1.054-1.115-1.735h5.48c-.062.416-.183.837-.471 1.155-.923 1.118-2.669 1.235-3.894.581m-1.625-.473c.605.975 1.787 1.391 2.886 1.425 1.125.056 2.394-.097 3.216-.949.609-.591.809-1.458.842-2.278-2.148-.019-4.296.015-6.443-.018.05-.58.225-1.182.677-1.581.834-.766 2.092-.835 3.15-.598.702.152 1.242.697 1.5 1.351l.982-.003c-.28-.975-1.14-1.681-2.112-1.9-1.317-.306-2.835-.253-3.97.555-1.241.872-1.475 2.736-.728 3.997"></path>
        </g>
        <path d="M6.189 5.189c-.333-.197-.738-.185-1.085-.345.702-.358 1.673-.232 2.158.425.249.231.008.72-.32.673-.302-.197-.43-.58-.753-.753m5.665.689c-.144-.134-.135-.347-.136-.527.318-.109.66-.098.99-.058.498.054 1.005.22 1.37.576-.598-.072-1.252-.217-1.815.079-.132.092-.295.014-.409-.07M4.889 10.52l.01-1.415c-.014-.417-.136-.835-.043-1.251.137-.736.794-1.389 1.567-1.381.113.371.245.737.407 1.089.465.915.389 1.989.147 2.955a.65.65 0 0 1-.598.48c-.534.031-1.049-.193-1.49-.478m5.962.362c-.277-.217-.263-.611-.207-.924.2-.981.772-1.822 1.215-2.702.33.664.127 1.416.076 2.116-.057.566.116 1.117.134 1.679-.406.025-.867.081-1.218-.169m-8.032 3.537c-.597-.112-1.165-.454-1.47-.99-.407-.708-.451-1.561-.38-2.356.143-1.045.392-2.073.686-3.085.263-.855.55-1.716 1.027-2.478.176-.26.378-.549.695-.64.271-.056.485.167.644.354l1.125 1.293c-.545.496-.84 1.251-.741 1.985a8.52 8.52 0 0 1 .059 1.699c-.06.805.055 1.62.305 2.385.184.574.499 1.097.904 1.542-.917.28-1.898.475-2.854.291m4.575.072a2.48 2.48 0 0 1-1.653-.963c-.535-.708-.768-1.601-.836-2.474.537.251 1.143.486 1.743.335.39-.094.683-.434.769-.819.175-.772.27-1.585.098-2.367-.132-.631-.517-1.178-.645-1.81.163-.013.332-.024.478-.106.3-.163.472-.513.454-.849l.024-2.582c.027-.356.037-.717.131-1.064.129-.413.415-.836.87-.916.479-.073.973.062 1.399.279.415.219.602.687.673 1.127l.361 2.767c.045.33-.019.692.165.989.105.191.311.28.496.374-.155.199-.318.392-.44.614-.458.945-1.078 1.839-1.269 2.891-.082.443-.035.969.331 1.277.403.346.969.326 1.468.309-.3.848-.857 1.603-1.562 2.16-.853.671-1.981.967-3.054.83m2.424.082c.199-.138.423-.233.623-.371.821-.549 1.46-1.35 1.862-2.248.112-.26.226-.533.203-.822.005-.591-.197-1.167-.137-1.759.058-.627.193-1.269.033-1.892-.045-.221-.161-.417-.24-.625l.024-.12a3.06 3.06 0 0 1 .207.307 14.3 14.3 0 0 1 1.478 3.451c.175.654.312 1.326.304 2.006-.012.285-.036.597-.221.829-.388.486-.905.87-1.487 1.091-.841.317-1.777.341-2.649.153m-.753.263c1.019.315 2.131.399 3.167.118a3.94 3.94 0 0 0 2.102-1.406c.209-.285.257-.65.272-.994.02-.613-.086-1.222-.224-1.818-.379-1.568-1.057-3.053-1.919-4.413.483-.207 1.024-.104 1.523-.015.207.041.475.091.633-.091.152-.198.006-.451-.149-.596-.725-.708-1.822-.894-2.792-.73l-.336-2.596c-.075-.481-.236-.983-.613-1.315-.354-.31-.821-.446-1.274-.532-.462-.081-.982-.014-1.346.303-.386.342-.606.848-.655 1.356-.098.867-.102 1.742-.1 2.615-.417-.359-.971-.544-1.52-.502-.387.032-.816.093-1.107.376-.161.147-.152.427.027.555.311.234.724.216 1.076.352.261.077.397.331.561.526-.304.022-.6.1-.874.234L4.303 4.886c-.227-.272-.561-.501-.932-.456-.416.051-.726.377-.959.701-.458.659-.742 1.419-1 2.174-.391 1.211-.698 2.452-.876 3.712-.088.95-.013 1.984.54 2.795.438.649 1.203 1.003 1.966 1.082 1.025.108 2.061-.102 3.024-.448.802.535 1.823.609 2.748.421.083-.01.165-.048.25-.031" fill="#6e6e6e"></path>
        <g fill="#646464">
          <path d="M10.981 10.751c.199.142.476.153.696.05-.008-.279-.343-.479-.586-.336-.101.046-.228.189-.11.286m-4.853-.017c.208.056.457.029.629-.11.12-.097.01-.259-.094-.317-.236-.175-.611-.004-.659.276-.014.082.057.128.124.151"></path>
        </g>
        <g class="M N">
          <path d="M9.818 14.573c.872.188 1.808.163 2.649-.153.582-.221 1.099-.605 1.487-1.091.185-.232.209-.544.221-.829.008-.68-.129-1.352-.304-2.006a14.3 14.3 0 0 0-1.478-3.451 3.17 3.17 0 0 0-.207-.307l-.024.12c.079.208.195.404.24.625.16.623.025 1.265-.033 1.892-.06.592.142 1.168.137 1.758.023.29-.091.563-.203.823-.402.898-1.041 1.699-1.862 2.248-.2.137-.424.233-.623.371m-2.424-.082c1.074.137 2.201-.159 3.054-.83.705-.557 1.262-1.312 1.562-2.16-.499.017-1.065.037-1.468-.309-.366-.309-.413-.835-.331-1.277.191-1.052.811-1.945 1.269-2.891.122-.222.285-.415.44-.614-.185-.094-.391-.183-.496-.374-.184-.297-.12-.659-.165-.989l-.361-2.767c-.071-.44-.258-.908-.673-1.127-.426-.216-.92-.352-1.399-.279-.455.08-.741.503-.87.916-.094.346-.104.708-.131 1.064l-.024 2.583c.019.336-.154.686-.453.849-.145.082-.315.093-.478.106.128.633.513 1.179.645 1.81.171.782.077 1.595-.099 2.367-.086.385-.378.725-.769.819-.6.151-1.205-.084-1.743-.335.068.873.301 1.766.836 2.474a2.48 2.48 0 0 0 1.653.963m-4.574-.071c.956.184 1.936-.011 2.854-.291a4.21 4.21 0 0 1-.904-1.542c-.25-.765-.365-1.58-.305-2.385a8.52 8.52 0 0 0-.059-1.699c-.099-.734.196-1.49.741-1.985L4.02 5.224c-.159-.187-.373-.41-.644-.354-.317.091-.518.381-.695.64-.477.762-.764 1.623-1.027 2.478C1.36 9 1.111 10.028.968 11.073c-.071.795-.027 1.648.38 2.356.305.536.873.878 1.47.99m8.163-3.668c-.118-.097.009-.24.11-.286.243-.143.578.057.586.336-.22.103-.497.092-.696-.05m-.13.131c.351.25.811.194 1.218.169-.018-.562-.191-1.113-.134-1.679.051-.7.254-1.452-.076-2.116-.443.881-1.015 1.722-1.215 2.703-.056.312-.07.707.207.924"></path>
          <path d="M6.128 10.734c-.067-.023-.138-.069-.124-.151.048-.28.423-.451.659-.276.104.058.214.22.094.317-.171.139-.421.166-.629.11M4.89 10.52c.441.285.956.508 1.49.478a.65.65 0 0 0 .598-.48c.243-.966.318-2.041-.147-2.956a8.67 8.67 0 0 1-.407-1.089c-.773-.008-1.43.645-1.567 1.381-.094.416.029.834.043 1.251.032.471-.001.944-.01 1.415m6.964-4.642c.114.084.277.162.409.07.563-.296 1.217-.152 1.815-.079-.365-.355-.872-.522-1.37-.576-.33-.039-.672-.051-.99.058.001.18-.008.393.136.527m-5.665-.689c.323.174.451.557.753.753.329.047.569-.442.321-.673-.485-.657-1.456-.783-2.158-.425.346.16.751.148 1.085.345"></path>
        </g>
        <g clip-path="url(#D)" class="M N">
          <path d="M9.065 14.836c-.084-.017-.167.021-.25.031-.925.188-1.945.114-2.748-.421-.963.346-1.999.556-3.024.448-.762-.079-1.528-.433-1.966-1.083-.553-.81-.628-1.844-.54-2.794.178-1.261.485-2.502.876-3.712.258-.755.541-1.515 1-2.174.233-.324.542-.65.959-.701.37-.045.705.185.932.456l1.214 1.376c.273-.134.57-.212.874-.234-.164-.195-.3-.449-.561-.526-.352-.136-.765-.118-1.076-.352-.179-.128-.188-.408-.027-.555.291-.283.72-.343 1.107-.376.549-.042 1.103.143 1.52.502l.1-2.615c.049-.508.268-1.014.655-1.356.364-.318.883-.384 1.346-.303.454.086.92.222 1.274.532.377.332.537.834.613 1.315l.336 2.596c.97-.164 2.067.022 2.792.73.155.146.301.398.149.596-.158.182-.426.132-.633.091-.499-.089-1.04-.192-1.523.015.862 1.36 1.54 2.845 1.919 4.413.138.596.244 1.205.224 1.818-.015.344-.063.709-.272.993-.52.685-1.272 1.184-2.102 1.407-1.036.281-2.148.197-3.167-.118m.003.441c.935.245 1.925.35 2.883.168.869-.157 1.696-.565 2.325-1.189.278-.279.561-.583.666-.974.187-.672.112-1.384 0-2.062-.297-1.626-.94-3.174-1.762-4.603.37 0 .726.118 1.093.142.36.024.744-.198.831-.562.108-.388-.136-.765-.422-1.006-.728-.648-1.738-.862-2.689-.807-.057-.982-.077-2.003-.492-2.914-.185-.406-.477-.769-.859-1.004C10.275.237 9.85.129 9.43.049c-.459-.083-.962-.038-1.358.226-.366.233-.595.624-.727 1.029-.325.845-.292 1.766-.331 2.656-.644-.259-1.377-.258-2.03-.034-.229.08-.432.219-.606.387-.336-.279-.8-.423-1.23-.301-.547.149-.934.608-1.225 1.07-.505.829-.821 1.755-1.1 2.68C.514 8.831.252 9.916.111 11.02c-.079.982.009 2.032.538 2.888.426.701 1.172 1.169 1.97 1.325 1.131.23 2.297.008 3.382-.331.351.158.702.33 1.086.393.653.132 1.326.071 1.981-.018"></path>
        </g>
      </g>
    </g>
    <g clip-path="url(#E)">
      <g fill="#ec573d">
        <use xlink:href="#T"></use>
        <use xlink:href="#U"></use>
        <use xlink:href="#V"></use>
        <use xlink:href="#W"></use>
        <path d="M241.778 285.301h2.768v-8.501q0-1.432-.684-2.506-.678-1.074-1.898-1.675-1.221-.594-2.844-.594-1.63 0-2.851.594-1.221.601-1.898 1.675-.678 1.074-.678 2.506v8.501h2.768v-8.265q0-.748.326-1.33.332-.582.933-.914.601-.332 1.4-.332.805 0 1.4.332.601.332.927.914.332.582.332 1.33z"></path>
        <use xlink:href="#X"></use>
      </g>
    </g>
    <g clip-path="url(#F)" class="B G">
      <use xlink:href="#Y"></use>
    </g>
    <g clip-path="url(#G)" class="B G">
      <path d="M318.12 291.12v-21.6h10.8l-21.6-21.6-21.6 21.6h10.8v21.6z"></path>
    </g>
    <use xlink:href="#Z" class="B H"></use>
    <use xlink:href="#Z" class="C D E F"></use>
    <use xlink:href="#a" class="B H"></use>
    <use xlink:href="#a" class="C D E F"></use>
    <use xlink:href="#a" y="23.52" class="B G"></use>
    <use xlink:href="#a" y="23.52" class="C D E F"></use>
    <use xlink:href="#b" class="B H"></use>
    <use xlink:href="#b" class="C D E F"></use>
    <use xlink:href="#b" y="-23.52" class="B G"></use>
    <use xlink:href="#b" y="-23.52" class="C D E F"></use>
    <use xlink:href="#c" class="B H"></use>
    <use xlink:href="#c" class="C D E F"></use>
    <use xlink:href="#d" class="B H"></use>
    <use xlink:href="#d" class="C D E F"></use>
    <use xlink:href="#d" y="23.52" class="B G"></use>
    <use xlink:href="#d" y="23.52" class="C D E F"></use>
    <use xlink:href="#e" class="B G"></use>
    <g class="C D E">
      <use xlink:href="#e" class="F"></use>
      <path d="M56.52 393.74a.94.94 0 0 0 .941.94H210.02a.94.94 0 0 0 .94-.94v-77.32a.94.94 0 0 0-.94-.94H57.461a.94.94 0 0 0-.941.94z" class="K L"></path>
    </g>
    <g clip-path="url(#H)">
      <use xlink:href="#f"></use>
      <use xlink:href="#g"></use>
      <use xlink:href="#h"></use>
      <use xlink:href="#i"></use>
      <use xlink:href="#j"></use>
      <use xlink:href="#k"></use>
      <path d="M141.589 298.334q-1.223 0-1.909.662-.686.67-.686 1.878 0 1.309.81 1.987.818.686 2.439.709l1.738.031v.429q0 .803-.273 1.216-.273.413-.881.413-.569 0-.842-.288-.265-.281-.327-.904l-2.283.109q.421 2.502 3.546 2.502 1.574 0 2.408-.772.842-.772.842-2.268v-3.055q0-.709.156-.982.164-.265.538-.265.249 0 .483.047v-1.185q-.195-.047-.351-.086-.156-.039-.312-.062-.156-.023-.335-.039-.171-.016-.405-.016-.826 0-1.223.405-.39.405-.468 1.192h-.047q-.491-.881-1.122-1.27-.623-.39-1.496-.39zm2.392 4.06l-1.044-.016q-.701-.016-1.021-.148-.312-.125-.475-.413-.164-.281-.164-.772 0-1.185.935-1.185.756 0 1.262.592.507.6.507 1.512z"></path>
      <use xlink:href="#l"></use>
      <path d="M160.566 298.334q-1.964 0-3.031 1.153-1.068 1.161-1.068 3.257 0 1.403.499 2.369.507.966 1.434 1.465.927.499 2.198.499 1.847 0 2.868-1.231 1.021-1.231 1.021-3.499v-.062h-5.72q0-1.146.507-1.816.514-.67 1.403-.67.577 0 1.021.242.444.249.6.764l2.065-.179q-.429-1.099-1.426-1.699-.998-.592-2.369-.592zm0 7.364q-.803 0-1.278-.546-.475-.538-.507-1.496h3.585q-.055.935-.538 1.488-.475.553-1.262.553z"></path>
      <use xlink:href="#m"></use>
      <use xlink:href="#n"></use>
    </g>
    <use xlink:href="#o" class="B H"></use>
    <use xlink:href="#o" class="C D E F"></use>
    <use xlink:href="#p" class="B H"></use>
    <use xlink:href="#p" class="C D E F"></use>
    <use xlink:href="#p" y="23.52" class="B H"></use>
    <use xlink:href="#p" y="23.52" class="C D E F"></use>
    <use xlink:href="#p" x="48" y="23.52" class="B H"></use>
    <use xlink:href="#p" x="48" y="23.52" class="C D E F"></use>
    <use xlink:href="#p" x="48" class="B H"></use>
    <use xlink:href="#p" x="48" class="C D E F"></use>
    <use xlink:href="#o" x="96" class="B H"></use>
    <use xlink:href="#o" x="96" class="C D E F"></use>
    <use xlink:href="#p" x="96" class="B G"></use>
    <use xlink:href="#p" x="96" class="C D E F"></use>
    <use xlink:href="#p" x="96" y="23.52" class="B G"></use>
    <use xlink:href="#p" x="96" y="23.52" class="C D E F"></use>
    <use xlink:href="#o" x="48" class="B H"></use>
    <g class="C D E">
      <use xlink:href="#o" x="48" class="F"></use>
      <path d="M230.16 393.74a.94.94 0 0 0 .94.94h152.56a.94.94 0 0 0 .94-.94v-77.32a.94.94 0 0 0-.94-.94H231.1a.94.94 0 0 0-.94.94z" class="K L"></path>
    </g>
    <g clip-path="url(#I)">
      <path d="M256.428 307.226v-8.736h-2.299v8.736h-3.164v1.777h8.627v-1.777zm6.243-8.892q-1.223 0-1.909.662-.686.67-.686 1.878 0 1.309.81 1.987.818.686 2.439.709l1.738.031v.429q0 .803-.273 1.216-.273.413-.881.413-.569 0-.842-.288-.265-.281-.327-.904l-2.283.109q.421 2.502 3.546 2.502 1.574 0 2.408-.772.842-.772.842-2.268v-3.055q0-.709.156-.982.164-.265.538-.265.249 0 .483.047v-1.185q-.195-.047-.351-.086-.156-.039-.312-.062-.156-.023-.335-.039-.171-.016-.405-.016-.826 0-1.223.405-.39.405-.468 1.192h-.047q-.491-.881-1.122-1.27-.623-.39-1.496-.39zm2.392 4.06l-1.044-.016q-.701-.016-1.021-.148-.312-.125-.475-.413-.164-.281-.164-.772 0-1.185.935-1.185.756 0 1.262.592.507.6.507 1.512zm4.038-3.904q.062 1.06.062 1.839v9.726h2.19v-3.07l-.016-1.387h.016q.32.709.959 1.099.647.39 1.512.39 1.449 0 2.229-1.146.779-1.146.779-3.242 0-1.979-.826-3.172-.826-1.192-2.252-1.192-.81 0-1.426.382-.608.39-.959 1.146h-.031q0-.257-.039-.717-.031-.452-.078-.655zm2.221 4.263q0-.935.203-1.582.21-.647.584-.998.382-.343.873-.343.748 0 1.153.717.413.717.413 2.151 0 1.426-.405 2.159-.397.74-1.177.74-.764 0-1.208-.748-.436-.748-.436-2.096zm11.636-2.782h2.751v-1.481h-8.019v1.481h3.078v8.603h-2.26v1.481h4.45zm7.45-1.637q-1.964 0-3.031 1.153-1.068 1.161-1.068 3.257 0 1.403.499 2.369.507.966 1.434 1.465.927.499 2.198.499 1.847 0 2.868-1.231 1.021-1.231 1.021-3.499v-.062h-5.72q0-1.146.507-1.816.514-.67 1.403-.67.577 0 1.021.242.444.249.6.764l2.065-.179q-.429-1.099-1.426-1.699-.998-.592-2.369-.592zm0 7.364q-.803 0-1.278-.546-.475-.538-.507-1.496h3.585q-.055.935-.538 1.488-.475.553-1.262.553zm21.542-.015q0-1.044-.475-1.839-.475-.787-1.379-1.216-.896-.429-2.151-.429h-1.535v-3.709h-2.299v10.513h3.741q2.003 0 3.047-.849 1.052-.842 1.052-2.47zm-2.315-.039q0 .849-.514 1.208-.507.366-1.527.366h-1.185v-3.25h1.247q1.029 0 1.504.421.475.429.475 1.255zm5.596-7.31q-1.223 0-1.909.662-.686.67-.686 1.878 0 1.309.81 1.987.818.686 2.439.709l1.738.031v.429q0 .803-.273 1.216-.273.413-.881.413-.569 0-.842-.288-.265-.281-.327-.904l-2.283.109q.421 2.502 3.546 2.502 1.574 0 2.408-.772.842-.772.842-2.268v-3.055q0-.709.156-.982.164-.265.538-.265.249 0 .483.047v-1.185q-.195-.047-.351-.086-.156-.039-.312-.062-.156-.023-.335-.039-.171-.016-.405-.016-.826 0-1.223.405-.39.405-.468 1.192h-.047q-.491-.881-1.122-1.27-.623-.39-1.496-.39zm2.392 4.06l-1.044-.016q-.701-.016-1.021-.148-.312-.125-.475-.413-.164-.281-.164-.772 0-1.185.935-1.185.756 0 1.262.592.507.6.507 1.512zm7.747-7.286q-1.449 0-2.361.6-.912.6-1.122 1.668l2.19.257q.117-.507.483-.803.366-.296.873-.296.787 0 1.192.569.405.561.405 1.675v.46l.016.896h-.016q-.725-1.551-2.556-1.551-1.395 0-2.166 1.083-.772 1.091-.772 3.109 0 2.042.803 3.156.803 1.122 2.299 1.122.818 0 1.434-.382.616-.374.959-1.107h.039q0 .273.031.74.039.468.078.616h2.073q-.047-.842-.047-1.948v-6.227q0-1.769-.998-2.704-.99-.935-2.837-.935zm1.675 7.715q0 1.278-.436 2.003-.436.725-1.192.725-.779 0-1.192-.709-.405-.701-.405-2.065 0-1.356.421-2.018.421-.655 1.161-.655.795 0 1.216.733.429.733.429 1.987zm7.163-4.489q-1.964 0-3.031 1.153-1.068 1.161-1.068 3.257 0 1.403.499 2.369.507.966 1.434 1.465.927.499 2.198.499 1.847 0 2.868-1.231 1.021-1.231 1.021-3.499v-.062h-5.72q0-1.146.507-1.816.514-.67 1.403-.67.577 0 1.021.242.444.249.6.764l2.065-.179q-.429-1.099-1.426-1.699-.998-.592-2.369-.592zm0 7.364q-.803 0-1.278-.546-.475-.538-.507-1.496h3.585q-.055.935-.538 1.488-.475.553-1.262.553zm20.053-.701l-.538-2.525h1.847v-1.161h-2.104l-.608-2.821h-1.208l.616 2.821h-2.408l-.608-2.821h-1.192l.608 2.821h-1.356v1.161h1.605l.546 2.525h-1.769v1.153h2.018l.616 2.852h1.192l-.608-2.852h2.4l.616 2.852h1.192l-.608-2.852h1.442v-1.153zm-3.608 0l-.546-2.525h2.408l.546 2.525z"></path>
      <use xlink:href="#q"></use>
    </g>
    <use xlink:href="#Z" y="-151.32" class="B G"></use>
    <use xlink:href="#Z" y="-151.32" class="C D E F"></use>
    <use xlink:href="#a" y="-151.32" class="B J"></use>
    <use xlink:href="#a" y="-151.32" class="C D E F"></use>
    <use xlink:href="#Z" y="-104.16" class="B J"></use>
    <use xlink:href="#Z" y="-104.16" class="C D E F"></use>
    <use xlink:href="#e" y="-104.16" class="B J"></use>
    <use xlink:href="#e" y="-104.16" class="C D E F"></use>
    <use xlink:href="#b" y="-174.84" class="B J"></use>
    <use xlink:href="#b" y="-174.84" class="C D E F"></use>
    <use xlink:href="#c" y="-151.32" class="B G"></use>
    <use xlink:href="#c" y="-151.32" class="C D E F"></use>
    <use xlink:href="#d" y="-151.32" class="B G"></use>
    <use xlink:href="#d" y="-151.32" class="C D E F"></use>
    <use xlink:href="#c" y="-104.16" class="B J"></use>
    <use xlink:href="#c" y="-104.16" class="C D E F"></use>
    <use xlink:href="#e" y="-151.32" class="B G"></use>
    <g class="C D E">
      <use xlink:href="#e" y="-151.32" class="F"></use>
      <path d="M56.52 242.42a.94.94 0 0 0 .941.94H210.02a.94.94 0 0 0 .94-.94V165.1a.94.94 0 0 0-.94-.94H57.461a.94.94 0 0 0-.941.94z" class="K L"></path>
    </g>
    <g clip-path="url(#J)">
      <path d="M82.786 155.876v-8.736h-2.299v8.736h-3.164v1.777h8.627v-1.777zm6.243-8.892q-1.223 0-1.909.662-.686.67-.686 1.878 0 1.309.81 1.987.818.686 2.439.709l1.738.031v.429q0 .803-.273 1.216-.273.413-.881.413-.569 0-.842-.288-.265-.281-.327-.904l-2.283.109q.421 2.502 3.546 2.502 1.574 0 2.408-.772.842-.772.842-2.268v-3.055q0-.709.156-.982.164-.265.538-.265.249 0 .483.047v-1.185q-.195-.047-.351-.086-.156-.039-.312-.062-.156-.023-.335-.039-.171-.016-.405-.016-.826 0-1.223.405-.39.405-.468 1.192h-.047q-.491-.881-1.122-1.27-.623-.39-1.496-.39zm2.392 4.06l-1.044-.016q-.701-.016-1.021-.148-.312-.125-.475-.413-.164-.281-.164-.772 0-1.185.935-1.185.756 0 1.262.592.507.6.507 1.512zm4.038-3.904q.062 1.06.062 1.839v9.726h2.19v-3.07l-.016-1.387h.016q.32.709.959 1.099.647.39 1.512.39 1.449 0 2.229-1.146.779-1.146.779-3.242 0-1.979-.826-3.172-.826-1.192-2.252-1.192-.81 0-1.426.382-.608.39-.959 1.146h-.031q0-.257-.039-.717-.031-.452-.078-.655zm2.221 4.263q0-.935.203-1.582.21-.647.584-.998.382-.343.873-.343.748 0 1.153.717.413.717.413 2.151 0 1.426-.405 2.159-.397.74-1.177.74-.764 0-1.208-.748-.436-.748-.436-2.096zm11.636-2.782h2.751v-1.481h-8.019v1.481h3.078v8.603h-2.26v1.481h4.45zm7.45-1.637q-1.964 0-3.031 1.153-1.068 1.161-1.068 3.257 0 1.403.499 2.369.507.966 1.434 1.465.927.499 2.198.499 1.847 0 2.868-1.231 1.021-1.231 1.021-3.499v-.062h-5.72q0-1.146.507-1.816.514-.67 1.403-.67.577 0 1.021.242.444.249.6.764l2.065-.179q-.429-1.099-1.426-1.699-.998-.592-2.369-.592zm0 7.364q-.803 0-1.278-.546-.475-.538-.507-1.496h3.585q-.055.935-.538 1.488-.475.553-1.262.553zm21.542-.015q0-1.044-.475-1.839-.475-.787-1.379-1.216-.896-.429-2.151-.429h-1.535v-3.709h-2.299v10.513h3.741q2.003 0 3.047-.849 1.052-.842 1.052-2.47zm-2.315-.039q0 .849-.514 1.208-.507.366-1.527.366h-1.185v-3.25h1.247q1.029 0 1.504.421.475.429.475 1.255zm5.596-7.31q-1.223 0-1.909.662-.686.67-.686 1.878 0 1.309.81 1.987.818.686 2.439.709l1.738.031v.429q0 .803-.273 1.216-.273.413-.881.413-.569 0-.842-.288-.265-.281-.327-.904l-2.283.109q.421 2.502 3.546 2.502 1.574 0 2.408-.772.842-.772.842-2.268v-3.055q0-.709.156-.982.164-.265.538-.265.249 0 .483.047v-1.185q-.195-.047-.351-.086-.156-.039-.312-.062-.156-.023-.335-.039-.171-.016-.405-.016-.826 0-1.223.405-.39.405-.468 1.192h-.047q-.491-.881-1.122-1.27-.623-.39-1.496-.39zm2.392 4.06l-1.044-.016q-.701-.016-1.021-.148-.312-.125-.475-.413-.164-.281-.164-.772 0-1.185.935-1.185.756 0 1.262.592.507.6.507 1.512zm7.747-7.286q-1.449 0-2.361.6-.912.6-1.122 1.668l2.19.257q.117-.507.483-.803.366-.296.873-.296.787 0 1.192.569.405.561.405 1.675v.46l.016.896h-.016q-.725-1.551-2.556-1.551-1.395 0-2.166 1.083-.772 1.091-.772 3.109 0 2.042.803 3.156.803 1.122 2.299 1.122.818 0 1.434-.382.616-.374.959-1.107h.039q0 .273.031.74.039.468.078.616h2.073q-.047-.842-.047-1.948v-6.227q0-1.769-.998-2.704-.99-.935-2.837-.935zm1.675 7.715q0 1.278-.436 2.003-.436.725-1.192.725-.779 0-1.192-.709-.405-.701-.405-2.065 0-1.356.421-2.018.421-.655 1.161-.655.795 0 1.216.733.429.733.429 1.987zm7.163-4.489q-1.964 0-3.031 1.153-1.068 1.161-1.068 3.257 0 1.403.499 2.369.507.966 1.434 1.465.927.499 2.198.499 1.847 0 2.868-1.231 1.021-1.231 1.021-3.499v-.062h-5.72q0-1.146.507-1.816.514-.67 1.403-.67.577 0 1.021.242.444.249.6.764l2.065-.179q-.429-1.099-1.426-1.699-.998-.592-2.369-.592zm0 7.364q-.803 0-1.278-.546-.475-.538-.507-1.496h3.585q-.055.935-.538 1.488-.475.553-1.262.553zm20.053-.701l-.538-2.525h1.847v-1.161h-2.104l-.608-2.821h-1.208l.616 2.821h-2.408l-.608-2.821h-1.192l.608 2.821h-1.356v1.161h1.605l.546 2.525h-1.769v1.153h2.018l.616 2.852h1.192l-.608-2.852h2.4l.616 2.852h1.192l-.608-2.852h1.442v-1.153zm-3.608 0l-.546-2.525h2.408l.546 2.525zm6.118-6.507v1.629h3.031v6.944q-.304-.639-1.216-1.075-.904-.436-1.901-.436v1.668q1.083 0 1.94.475.857.475 1.294 1.309h2.073v-8.884h2.517v-1.629z"></path>
    </g>
    <use xlink:href="#o" y="-151.32" class="B J"></use>
    <use xlink:href="#o" y="-151.32" class="C D E F"></use>
    <use xlink:href="#p" y="-151.32" class="B J"></use>
    <use xlink:href="#p" y="-151.32" class="C D E F"></use>
    <use xlink:href="#o" y="-104.16" class="B J"></use>
    <use xlink:href="#o" y="-104.16" class="C D E F"></use>
    <use xlink:href="#o" x="48" y="-104.16" class="B J"></use>
    <use xlink:href="#o" x="48" y="-104.16" class="C D E F"></use>
    <use xlink:href="#p" x="48" y="-151.32" class="B J"></use>
    <use xlink:href="#p" x="48" y="-151.32" class="C D E F"></use>
    <use xlink:href="#o" x="96" y="-151.32" class="B G"></use>
    <use xlink:href="#o" x="96" y="-151.32" class="C D E F"></use>
    <use xlink:href="#p" x="96" y="-151.32" class="B J"></use>
    <use xlink:href="#p" x="96" y="-151.32" class="C D E F"></use>
    <use xlink:href="#o" x="96" y="-104.16" class="B J"></use>
    <use xlink:href="#o" x="96" y="-104.16" class="C D E F"></use>
    <use xlink:href="#o" x="48" y="-151.32" class="B G"></use>
    <g class="C D E">
      <use xlink:href="#o" x="48" y="-151.32" class="F"></use>
      <path d="M230.16 242.42a.94.94 0 0 0 .94.94h152.56a.94.94 0 0 0 .94-.94V165.1a.94.94 0 0 0-.94-.94H231.1a.94.94 0 0 0-.94.94z" class="K L"></path>
    </g>
    <g clip-path="url(#K)">
      <path d="M256.428 155.876v-8.736h-2.299v8.736h-3.164v1.777h8.627v-1.777zm6.243-8.892q-1.223 0-1.909.662-.686.67-.686 1.878 0 1.309.81 1.987.818.686 2.439.709l1.738.031v.429q0 .803-.273 1.216-.273.413-.881.413-.569 0-.842-.288-.265-.281-.327-.904l-2.283.109q.421 2.502 3.546 2.502 1.574 0 2.408-.772.842-.772.842-2.268v-3.055q0-.709.156-.982.164-.265.538-.265.249 0 .483.047v-1.185q-.195-.047-.351-.086-.156-.039-.312-.062-.156-.023-.335-.039-.171-.016-.405-.016-.826 0-1.223.405-.39.405-.468 1.192h-.047q-.491-.881-1.122-1.27-.623-.39-1.496-.39zm2.392 4.06l-1.044-.016q-.701-.016-1.021-.148-.312-.125-.475-.413-.164-.281-.164-.772 0-1.185.935-1.185.756 0 1.262.592.507.6.507 1.512zm4.038-3.904q.062 1.06.062 1.839v9.726h2.19v-3.07l-.016-1.387h.016q.32.709.959 1.099.647.39 1.512.39 1.449 0 2.229-1.146.779-1.146.779-3.242 0-1.979-.826-3.172-.826-1.192-2.252-1.192-.81 0-1.426.382-.608.39-.959 1.146h-.031q0-.257-.039-.717-.031-.452-.078-.655zm2.221 4.263q0-.935.203-1.582.21-.647.584-.998.382-.343.873-.343.748 0 1.153.717.413.717.413 2.151 0 1.426-.405 2.159-.397.74-1.177.74-.764 0-1.208-.748-.436-.748-.436-2.096zm11.636-2.782h2.751v-1.481h-8.019v1.481h3.078v8.603h-2.26v1.481h4.45zm7.45-1.637q-1.964 0-3.031 1.153-1.068 1.161-1.068 3.257 0 1.403.499 2.369.507.966 1.434 1.465.927.499 2.198.499 1.847 0 2.868-1.231 1.021-1.231 1.021-3.499v-.062h-5.72q0-1.146.507-1.816.514-.67 1.403-.67.577 0 1.021.242.444.249.6.764l2.065-.179q-.429-1.099-1.426-1.699-.998-.592-2.369-.592zm0 7.364q-.803 0-1.278-.546-.475-.538-.507-1.496h3.585q-.055.935-.538 1.488-.475.553-1.262.553zm21.542-.015q0-1.044-.475-1.839-.475-.787-1.379-1.216-.896-.429-2.151-.429h-1.535v-3.709h-2.299v10.513h3.741q2.003 0 3.047-.849 1.052-.842 1.052-2.47zm-2.315-.039q0 .849-.514 1.208-.507.366-1.527.366h-1.185v-3.25h1.247q1.029 0 1.504.421.475.429.475 1.255zm5.596-7.31q-1.223 0-1.909.662-.686.67-.686 1.878 0 1.309.81 1.987.818.686 2.439.709l1.738.031v.429q0 .803-.273 1.216-.273.413-.881.413-.569 0-.842-.288-.265-.281-.327-.904l-2.283.109q.421 2.502 3.546 2.502 1.574 0 2.408-.772.842-.772.842-2.268v-3.055q0-.709.156-.982.164-.265.538-.265.249 0 .483.047v-1.185q-.195-.047-.351-.086-.156-.039-.312-.062-.156-.023-.335-.039-.171-.016-.405-.016-.826 0-1.223.405-.39.405-.468 1.192h-.047q-.491-.881-1.122-1.27-.623-.39-1.496-.39zm2.392 4.06l-1.044-.016q-.701-.016-1.021-.148-.312-.125-.475-.413-.164-.281-.164-.772 0-1.185.935-1.185.756 0 1.262.592.507.6.507 1.512zm7.747-7.286q-1.449 0-2.361.6-.912.6-1.122 1.668l2.19.257q.117-.507.483-.803.366-.296.873-.296.787 0 1.192.569.405.561.405 1.675v.46l.016.896h-.016q-.725-1.551-2.556-1.551-1.395 0-2.166 1.083-.772 1.091-.772 3.109 0 2.042.803 3.156.803 1.122 2.299 1.122.818 0 1.434-.382.616-.374.959-1.107h.039q0 .273.031.74.039.468.078.616h2.073q-.047-.842-.047-1.948v-6.227q0-1.769-.998-2.704-.99-.935-2.837-.935zm1.675 7.715q0 1.278-.436 2.003-.436.725-1.192.725-.779 0-1.192-.709-.405-.701-.405-2.065 0-1.356.421-2.018.421-.655 1.161-.655.795 0 1.216.733.429.733.429 1.987zm7.163-4.489q-1.964 0-3.031 1.153-1.068 1.161-1.068 3.257 0 1.403.499 2.369.507.966 1.434 1.465.927.499 2.198.499 1.847 0 2.868-1.231 1.021-1.231 1.021-3.499v-.062h-5.72q0-1.146.507-1.816.514-.67 1.403-.67.577 0 1.021.242.444.249.6.764l2.065-.179q-.429-1.099-1.426-1.699-.998-.592-2.369-.592zm0 7.364q-.803 0-1.278-.546-.475-.538-.507-1.496h3.585q-.055.935-.538 1.488-.475.553-1.262.553zm20.053-.701l-.538-2.525h1.847v-1.161h-2.104l-.608-2.821h-1.208l.616 2.821h-2.408l-.608-2.821h-1.192l.608 2.821h-1.356v1.161h1.605l.546 2.525h-1.769v1.153h2.018l.616 2.852h1.192l-.608-2.852h2.4l.616 2.852h1.192l-.608-2.852h1.442v-1.153zm-3.608 0l-.546-2.525h2.408l.546 2.525zm5.916-6.507v1.52q.39.857 1.107 1.714.725.865 2.104 1.987 1.075.881 1.395 1.216.32.335.499.647.187.32.187.647 0 .561-.366.881-.366.32-1.075.32-.701 0-1.075-.382-.366-.374-.475-1.13l-2.205.125q.187 1.527 1.138 2.33.959.803 2.603.803 1.699 0 2.689-.779.99-.772.99-2.073 0-.849-.538-1.66-.53-.803-1.598-1.637-1.512-1.169-2.034-1.683-.522-.514-.756-1.044h5.097v-1.8z"></path>
    </g>
    <use xlink:href="#o" x="209.88" class="B H"></use>
    <use xlink:href="#o" x="209.88" class="C D E F"></use>
    <use xlink:href="#p" x="209.88" class="B H"></use>
    <use xlink:href="#p" x="209.88" class="C D E F"></use>
    <use xlink:href="#p" x="209.88" y="23.52" class="B G"></use>
    <use xlink:href="#p" x="209.88" y="23.52" class="C D E F"></use>
    <use xlink:href="#p" x="257.88" y="23.52" class="B H"></use>
    <use xlink:href="#p" x="257.88" y="23.52" class="C D E F"></use>
    <use xlink:href="#p" x="257.88" class="B G"></use>
    <use xlink:href="#p" x="257.88" class="C D E F"></use>
    <use xlink:href="#o" x="305.88" class="B H"></use>
    <use xlink:href="#o" x="305.88" class="C D E F"></use>
    <use xlink:href="#p" x="305.88" class="B H"></use>
    <use xlink:href="#p" x="305.88" class="C D E F"></use>
    <use xlink:href="#p" x="305.88" y="23.52" class="B G"></use>
    <use xlink:href="#p" x="305.88" y="23.52" class="C D E F"></use>
    <use xlink:href="#o" x="257.88" class="B G"></use>
    <g class="C D E">
      <use xlink:href="#o" x="257.88" class="F"></use>
      <path d="M440.04 393.74a.94.94 0 0 0 .94.94h152.56a.94.94 0 0 0 .94-.94v-77.32a.94.94 0 0 0-.94-.94H440.98a.94.94 0 0 0-.94.94z" class="K L"></path>
    </g>
    <g clip-path="url(#L)">
      <path d="M466.328 307.226v-8.736h-2.299v8.736h-3.164v1.777h8.627v-1.777zm6.243-8.892q-1.223 0-1.909.662-.686.67-.686 1.878 0 1.309.81 1.987.818.686 2.439.709l1.738.031v.429q0 .803-.273 1.216-.273.413-.881.413-.569 0-.842-.288-.265-.281-.327-.904l-2.283.109q.421 2.502 3.546 2.502 1.574 0 2.408-.772.842-.772.842-2.268v-3.055q0-.709.156-.982.164-.265.538-.265.249 0 .483.047v-1.185q-.195-.047-.351-.086-.156-.039-.312-.062-.156-.023-.335-.039-.171-.016-.405-.016-.826 0-1.223.405-.39.405-.468 1.192h-.047q-.491-.881-1.122-1.27-.623-.39-1.496-.39zm2.392 4.06l-1.044-.016q-.701-.016-1.021-.148-.312-.125-.475-.413-.164-.281-.164-.772 0-1.185.935-1.185.756 0 1.262.592.507.6.507 1.512zm4.038-3.904q.062 1.06.062 1.839v9.726h2.19v-3.07l-.016-1.387h.016q.32.709.959 1.099.647.39 1.512.39 1.449 0 2.229-1.146.779-1.146.779-3.242 0-1.979-.826-3.172-.826-1.192-2.252-1.192-.81 0-1.426.382-.608.39-.959 1.146h-.031q0-.257-.039-.717-.031-.452-.078-.655zm2.221 4.263q0-.935.203-1.582.21-.647.584-.998.382-.343.873-.343.748 0 1.153.717.413.717.413 2.151 0 1.426-.405 2.159-.397.74-1.177.74-.764 0-1.208-.748-.436-.748-.436-2.096zm11.636-2.782h2.751v-1.481h-8.019v1.481h3.078v8.603h-2.26v1.481h4.45zm7.45-1.637q-1.964 0-3.031 1.153-1.068 1.161-1.068 3.257 0 1.403.499 2.369.507.966 1.434 1.465.927.499 2.198.499 1.847 0 2.868-1.231 1.021-1.231 1.021-3.499v-.062h-5.72q0-1.146.507-1.816.514-.67 1.403-.67.577 0 1.021.242.444.249.6.764l2.065-.179q-.429-1.099-1.426-1.699-.998-.592-2.369-.592zm0 7.364q-.803 0-1.278-.546-.475-.538-.507-1.496h3.585q-.055.935-.538 1.488-.475.553-1.262.553zm21.542-.015q0-1.044-.475-1.839-.475-.787-1.379-1.216-.896-.429-2.151-.429h-1.535v-3.709h-2.299v10.513h3.741q2.003 0 3.047-.849 1.052-.842 1.052-2.47zm-2.315-.039q0 .849-.514 1.208-.507.366-1.527.366h-1.185v-3.25h1.247q1.029 0 1.504.421.475.429.475 1.255zm5.596-7.31q-1.223 0-1.909.662-.686.67-.686 1.878 0 1.309.81 1.987.818.686 2.439.709l1.738.031v.429q0 .803-.273 1.216-.273.413-.881.413-.569 0-.842-.288-.265-.281-.327-.904l-2.283.109q.421 2.502 3.546 2.502 1.574 0 2.408-.772.842-.772.842-2.268v-3.055q0-.709.156-.982.164-.265.538-.265.249 0 .483.047v-1.185q-.195-.047-.351-.086-.156-.039-.312-.062-.156-.023-.335-.039-.171-.016-.405-.016-.826 0-1.223.405-.39.405-.468 1.192h-.047q-.491-.881-1.122-1.27-.623-.39-1.496-.39zm2.392 4.06l-1.044-.016q-.701-.016-1.021-.148-.312-.125-.475-.413-.164-.281-.164-.772 0-1.185.935-1.185.756 0 1.262.592.507.6.507 1.512zm7.747-7.286q-1.449 0-2.361.6-.912.6-1.122 1.668l2.19.257q.117-.507.483-.803.366-.296.873-.296.787 0 1.192.569.405.561.405 1.675v.46l.016.896h-.016q-.725-1.551-2.556-1.551-1.395 0-2.166 1.083-.772 1.091-.772 3.109 0 2.042.803 3.156.803 1.122 2.299 1.122.818 0 1.434-.382.616-.374.959-1.107h.039q0 .273.031.74.039.468.078.616h2.073q-.047-.842-.047-1.948v-6.227q0-1.769-.997-2.704-.99-.935-2.837-.935zm1.675 7.715q0 1.278-.436 2.003-.436.725-1.192.725-.779 0-1.192-.709-.405-.701-.405-2.065 0-1.356.421-2.018.421-.655 1.161-.655.795 0 1.216.733.429.733.429 1.987z"></path>
      <use xlink:href="#r"></use>
      <path d="M564.161 304.997l-.538-2.525h1.847v-1.161h-2.104l-.608-2.821h-1.208l.616 2.821h-2.408l-.608-2.821h-1.192l.608 2.821h-1.356v1.161h1.605l.546 2.525h-1.769v1.153h2.018l.616 2.852h1.192l-.608-2.852h2.4l.616 2.852h1.192l-.608-2.852h1.442v-1.153zm-3.608 0l-.546-2.525h2.408l.546 2.525zm6.118-6.507v1.629h3.031v6.944q-.304-.639-1.216-1.075-.904-.436-1.901-.436v1.668q1.083 0 1.94.475.857.475 1.294 1.309h2.073v-8.884h2.517v-1.629z"></path>
    </g>
    <use xlink:href="#o" x="383.52" class="B H"></use>
    <use xlink:href="#o" x="383.52" class="C D E F"></use>
    <use xlink:href="#p" x="383.52" class="B H"></use>
    <use xlink:href="#p" x="383.52" class="C D E F"></use>
    <use xlink:href="#p" x="383.52" y="23.52" class="B H"></use>
    <use xlink:href="#p" x="383.52" y="23.52" class="C D E F"></use>
    <use xlink:href="#p" x="431.52" y="23.52" class="B H"></use>
    <use xlink:href="#p" x="431.52" y="23.52" class="C D E F"></use>
    <use xlink:href="#p" x="431.52" class="B H"></use>
    <use xlink:href="#p" x="431.52" class="C D E F"></use>
    <use xlink:href="#o" x="479.52" class="B H"></use>
    <use xlink:href="#o" x="479.52" class="C D E F"></use>
    <use xlink:href="#p" x="479.52" class="B G"></use>
    <use xlink:href="#p" x="479.52" class="C D E F"></use>
    <use xlink:href="#p" x="479.52" y="23.52" class="B G"></use>
    <use xlink:href="#p" x="479.52" y="23.52" class="C D E F"></use>
    <use xlink:href="#o" x="431.52" class="B H"></use>
    <g class="C D E">
      <use xlink:href="#o" x="431.52" class="F"></use>
      <path d="M613.68 393.74a.94.94 0 0 0 .94.94h152.44a.94.94 0 0 0 .94-.94v-77.32a.94.94 0 0 0-.94-.94H614.62a.94.94 0 0 0-.94.94z" class="K L"></path>
    </g>
    <g clip-path="url(#M)">
      <path d="M639.948 307.226v-8.736h-2.299v8.736h-3.164v1.777h8.627v-1.777zm6.243-8.892q-1.223 0-1.909.662-.686.67-.686 1.878 0 1.309.81 1.987.818.686 2.439.709l1.738.031v.429q0 .803-.273 1.216-.273.413-.881.413-.569 0-.842-.288-.265-.281-.327-.904l-2.283.109q.421 2.502 3.546 2.502 1.574 0 2.408-.772.842-.772.842-2.268v-3.055q0-.709.156-.982.164-.265.538-.265.249 0 .483.047v-1.185q-.195-.047-.351-.086-.156-.039-.312-.062-.156-.023-.335-.039-.171-.016-.405-.016-.826 0-1.223.405-.39.405-.468 1.192h-.047q-.491-.881-1.122-1.27-.623-.39-1.496-.39zm2.392 4.06l-1.044-.016q-.701-.016-1.021-.148-.312-.125-.475-.413-.164-.281-.164-.772 0-1.185.935-1.185.756 0 1.262.592.507.6.507 1.512zm4.038-3.904q.062 1.06.062 1.839v9.726h2.19v-3.07l-.016-1.387h.016q.32.709.959 1.099.647.39 1.512.39 1.449 0 2.229-1.146.779-1.146.779-3.242 0-1.979-.826-3.172-.826-1.192-2.252-1.192-.81 0-1.426.382-.608.39-.959 1.146h-.031q0-.257-.039-.717-.031-.452-.078-.655zm2.221 4.263q0-.935.203-1.582.21-.647.584-.998.382-.343.873-.343.748 0 1.153.717.413.717.413 2.151 0 1.426-.405 2.159-.397.74-1.177.74-.764 0-1.208-.748-.436-.748-.436-2.096zm11.636-2.782h2.751v-1.481h-8.019v1.481h3.078v8.603h-2.26v1.481h4.45zm7.45-1.637q-1.964 0-3.031 1.153-1.068 1.161-1.068 3.257 0 1.403.499 2.369.507.966 1.434 1.465.927.499 2.198.499 1.847 0 2.868-1.231 1.021-1.231 1.021-3.499v-.062h-5.72q0-1.146.507-1.816.514-.67 1.403-.67.577 0 1.021.242.444.249.6.764l2.065-.179q-.429-1.099-1.426-1.699-.997-.592-2.369-.592zm0 7.364q-.803 0-1.278-.546-.475-.538-.507-1.496h3.585q-.055.935-.538 1.488-.475.553-1.262.553zm21.542-.015q0-1.044-.475-1.839-.475-.787-1.379-1.216-.896-.429-2.151-.429h-1.535v-3.709h-2.299v10.513h3.741q2.003 0 3.047-.849 1.052-.842 1.052-2.47zm-2.315-.039q0 .849-.514 1.208-.507.366-1.527.366h-1.185v-3.25h1.247q1.029 0 1.504.421.475.429.475 1.255zm5.596-7.31q-1.223 0-1.909.662-.686.67-.686 1.878 0 1.309.81 1.987.818.686 2.439.709l1.738.031v.429q0 .803-.273 1.216-.273.413-.881.413-.569 0-.842-.288-.265-.281-.327-.904l-2.283.109q.421 2.502 3.546 2.502 1.574 0 2.408-.772.842-.772.842-2.268v-3.055q0-.709.156-.982.164-.265.538-.265.249 0 .483.047v-1.185q-.195-.047-.351-.086-.156-.039-.312-.062-.156-.023-.335-.039-.171-.016-.405-.016-.826 0-1.223.405-.39.405-.468 1.192h-.047q-.491-.881-1.122-1.27-.623-.39-1.496-.39zm2.392 4.06l-1.044-.016q-.701-.016-1.021-.148-.312-.125-.475-.413-.164-.281-.164-.772 0-1.185.935-1.185.756 0 1.262.592.507.6.507 1.512zm7.747-7.286q-1.449 0-2.361.6-.912.6-1.122 1.668l2.19.257q.117-.507.483-.803.366-.296.873-.296.787 0 1.192.569.405.561.405 1.675v.46l.016.896h-.016q-.725-1.551-2.556-1.551-1.395 0-2.166 1.083-.772 1.091-.772 3.109 0 2.042.803 3.156.803 1.122 2.299 1.122.818 0 1.434-.382.616-.374.959-1.107h.039q0 .273.031.74.039.468.078.616h2.073q-.047-.842-.047-1.948v-6.227q0-1.769-.998-2.704-.99-.935-2.837-.935zm1.675 7.715q0 1.278-.436 2.003-.436.725-1.192.725-.779 0-1.192-.709-.405-.701-.405-2.065 0-1.356.421-2.018.421-.655 1.161-.655.795 0 1.216.733.429.733.429 1.987zm7.163-4.489q-1.964 0-3.031 1.153-1.068 1.161-1.068 3.257 0 1.403.499 2.369.507.966 1.434 1.465.927.499 2.198.499 1.847 0 2.868-1.231 1.021-1.231 1.021-3.499v-.062h-5.72q0-1.146.507-1.816.514-.67 1.403-.67.577 0 1.021.242.444.249.6.764l2.065-.179q-.429-1.099-1.426-1.699-.997-.592-2.369-.592zm0 7.364q-.803 0-1.278-.546-.475-.538-.507-1.496h3.585q-.055.935-.538 1.488-.475.553-1.262.553zm20.053-.701l-.538-2.525h1.847v-1.161h-2.104l-.608-2.821h-1.208l.616 2.821h-2.408l-.608-2.821h-1.192l.608 2.821h-1.356v1.161h1.605l.546 2.525h-1.769v1.153h2.018l.616 2.852h1.192l-.608-2.852h2.4l.616 2.852h1.192l-.608-2.852h1.442v-1.153zm-3.608 0l-.546-2.525h2.408l.546 2.525zm5.916-6.507v1.52q.39.857 1.107 1.714.725.865 2.104 1.987 1.075.881 1.395 1.216.32.335.499.647.187.32.187.647 0 .561-.366.881-.366.32-1.075.32-.701 0-1.075-.382-.366-.374-.475-1.13l-2.205.125q.187 1.527 1.138 2.33.959.803 2.603.803 1.699 0 2.689-.779.99-.772.99-2.073 0-.849-.538-1.66-.53-.803-1.598-1.637-1.512-1.169-2.034-1.683-.522-.514-.756-1.044h5.097v-1.8z"></path>
    </g>
    <use xlink:href="#s" class="B G"></use>
    <use xlink:href="#s" class="C D E F"></use>
    <use xlink:href="#t" class="B G"></use>
    <use xlink:href="#t" class="C D E F"></use>
    <use xlink:href="#s" y="47.16" class="B J"></use>
    <use xlink:href="#s" y="47.16" class="C D E F"></use>
    <use xlink:href="#s" x="48" y="47.16" class="B J"></use>
    <use xlink:href="#s" x="48" y="47.16" class="C D E F"></use>
    <use xlink:href="#t" x="48" class="B G"></use>
    <use xlink:href="#t" x="48" class="C D E F"></use>
    <use xlink:href="#s" x="96" class="B G"></use>
    <use xlink:href="#s" x="96" class="C D E F"></use>
    <use xlink:href="#t" x="96" class="B G"></use>
    <use xlink:href="#t" x="96" class="C D E F"></use>
    <use xlink:href="#s" x="96" y="47.16" class="B J"></use>
    <use xlink:href="#s" x="96" y="47.16" class="C D E F"></use>
    <use xlink:href="#s" x="48" class="B G"></use>
    <g class="C D E">
      <use xlink:href="#s" x="48" class="F"></use>
      <path d="M526.8 242.42a.94.94 0 0 0 .94.94H680.3a.94.94 0 0 0 .94-.94V165.1a.94.94 0 0 0-.94-.94H527.74a.94.94 0 0 0-.94.94z" class="K L"></path>
    </g>
    <g clip-path="url(#N)">
      <path d="M553.138 155.876v-8.736h-2.299v8.736h-3.164v1.777h8.627v-1.777zm6.243-8.892q-1.223 0-1.909.662-.686.67-.686 1.878 0 1.309.81 1.987.818.686 2.439.709l1.738.031v.429q0 .803-.273 1.216-.273.413-.881.413-.569 0-.842-.288-.265-.281-.327-.904l-2.283.109q.421 2.502 3.546 2.502 1.574 0 2.408-.772.842-.772.842-2.268v-3.055q0-.709.156-.982.164-.265.538-.265.249 0 .483.047v-1.185q-.195-.047-.351-.086-.156-.039-.312-.062-.156-.023-.335-.039-.171-.016-.405-.016-.826 0-1.223.405-.39.405-.468 1.192H562q-.491-.881-1.122-1.27-.623-.39-1.496-.39zm2.392 4.06l-1.044-.016q-.701-.016-1.021-.148-.312-.125-.475-.413-.164-.281-.164-.772 0-1.185.935-1.185.756 0 1.262.592.507.6.507 1.512zm4.038-3.904q.062 1.06.062 1.839v9.726h2.19v-3.07l-.016-1.387h.016q.32.709.959 1.099.647.39 1.512.39 1.449 0 2.229-1.146.779-1.146.779-3.242 0-1.979-.826-3.172-.826-1.192-2.252-1.192-.81 0-1.426.382-.608.39-.959 1.146h-.031q0-.257-.039-.717-.031-.452-.078-.655zm2.221 4.263q0-.935.203-1.582.21-.647.584-.998.382-.343.873-.343.748 0 1.153.717.413.717.413 2.151 0 1.426-.405 2.159-.397.74-1.177.74-.764 0-1.208-.748-.436-.748-.436-2.096zm11.636-2.782h2.751v-1.481H574.4v1.481h3.078v8.603h-2.26v1.481h4.45zm7.45-1.637q-1.964 0-3.031 1.153-1.068 1.161-1.068 3.257 0 1.403.499 2.369.507.966 1.434 1.465.927.499 2.198.499 1.847 0 2.868-1.231 1.021-1.231 1.021-3.499v-.062h-5.72q0-1.146.507-1.816.514-.67 1.403-.67.577 0 1.021.242.444.249.6.764l2.065-.179q-.429-1.099-1.426-1.699-.997-.592-2.369-.592zm0 7.364q-.803 0-1.278-.546-.475-.538-.507-1.496h3.585q-.055.935-.538 1.488-.475.553-1.262.553zm21.542-.015q0-1.044-.475-1.839-.475-.787-1.379-1.216-.896-.429-2.151-.429h-1.535v-3.709h-2.299v10.513h3.741q2.003 0 3.047-.849 1.052-.842 1.052-2.47zm-2.315-.039q0 .849-.514 1.208-.507.366-1.527.366h-1.185v-3.25h1.247q1.029 0 1.504.421.475.429.475 1.255zm5.596-7.31q-1.223 0-1.909.662-.686.67-.686 1.878 0 1.309.81 1.987.818.686 2.439.709l1.738.031v.429q0 .803-.273 1.216-.273.413-.881.413-.569 0-.842-.288-.265-.281-.327-.904l-2.283.109q.421 2.502 3.546 2.502 1.574 0 2.408-.772.842-.772.842-2.268v-3.055q0-.709.156-.982.164-.265.538-.265.249 0 .483.047v-1.185q-.195-.047-.351-.086-.156-.039-.312-.062-.156-.023-.335-.039-.171-.016-.405-.016-.826 0-1.223.405-.39.405-.468 1.192h-.047q-.491-.881-1.122-1.27-.623-.39-1.496-.39zm2.392 4.06l-1.044-.016q-.701-.016-1.021-.148-.312-.125-.475-.413-.164-.281-.164-.772 0-1.185.935-1.185.756 0 1.262.592.507.6.507 1.512zm7.747-7.286q-1.449 0-2.361.6-.912.6-1.122 1.668l2.19.257q.117-.507.483-.803.366-.296.873-.296.787 0 1.192.569.405.561.405 1.675v.46l.016.896h-.016q-.725-1.551-2.556-1.551-1.395 0-2.166 1.083-.772 1.091-.772 3.109 0 2.042.803 3.156.803 1.122 2.299 1.122.818 0 1.434-.382.616-.374.959-1.107h.039q0 .273.031.74.039.468.078.616h2.073q-.047-.842-.047-1.948v-6.227q0-1.769-.998-2.704-.99-.935-2.837-.935zm1.675 7.715q0 1.278-.436 2.003-.436.725-1.192.725-.779 0-1.192-.709-.405-.701-.405-2.065 0-1.356.421-2.018.421-.655 1.161-.655.795 0 1.216.733.429.733.429 1.987zm7.163-4.489q-1.964 0-3.031 1.153-1.068 1.161-1.068 3.257 0 1.403.499 2.369.507.966 1.434 1.465.927.499 2.198.499 1.847 0 2.868-1.231 1.021-1.231 1.021-3.499v-.062h-5.72q0-1.146.507-1.816.514-.67 1.403-.67.577 0 1.021.242.444.249.6.764l2.065-.179q-.429-1.099-1.426-1.699-.997-.592-2.369-.592zm0 7.364q-.803 0-1.278-.546-.475-.538-.507-1.496h3.585q-.055.935-.538 1.488-.475.553-1.262.553zm20.053-.701l-.538-2.525h1.847v-1.161h-2.104l-.608-2.821h-1.208l.616 2.821h-2.408l-.608-2.821h-1.192l.608 2.821h-1.356v1.161h1.605l.546 2.525h-1.769v1.153h2.018l.616 2.852h1.192l-.608-2.852h2.4l.616 2.852h1.192l-.608-2.852h1.442v-1.153zm-3.608 0l-.546-2.525h2.408l.546 2.525zm13.724-3.577q0-1.473-1.06-2.291-1.052-.818-2.915-.818-1.792 0-2.844.779-1.044.787-1.223 2.268l2.229.195q.195-1.465 1.831-1.465.818 0 1.278.39.46.397.46 1.075 0 .678-.569 1.036-.561.358-1.613.358h-.764v1.769h.717q.951 0 1.457.358.514.366.514 1.013 0 .584-.429.959-.421.374-1.13.374-.67 0-1.107-.32-.436-.312-.499-.998l-2.19.156q.171 1.395 1.177 2.151 1.013.756 2.657.756 1.153 0 1.995-.351.849-.351 1.294-.99.452-.631.452-1.465 0-.959-.608-1.598-.608-.639-1.738-.857v-.031q1.223-.14 1.925-.803.701-.655.701-1.652z"></path>
    </g>
    <g clip-path="url(#O)" class="C D E">
      <path d="M715.68 268.8c0-3.98-16.06-7.2-35.87-7.2h-39.86c-19.81 0-35.87-3.22-35.87-7.2 0 3.98-16.06 7.2-35.87 7.2h-39.86c-19.81 0-35.87 3.22-35.87 7.2" stroke="#ec572d" stroke-width="6" stroke-linecap="square"></path>
    </g>
    <g clip-path="url(#P)">
      <g fill="#ec573d">
        <path d="M541.923 285.301l3.164-9.946h.121l3.17 9.946h3.068l-4.513-13.091h-3.567l-4.519 13.091zm13.355-13.091h-2.966l4.519 13.091h3.567l4.513-13.091h-2.966l-3.279 10.099h-.102zm-.185 5.146h7.006v-2.161h-7.006zm22.943 3.362h-2.8q-.077.543-.313.965-.237.428-.607.729-.371.3-.857.46-.479.16-1.042.16-1.016 0-1.771-.505-.754-.499-1.17-1.457-.415-.952-.415-2.314 0-1.4.415-2.352.422-.952 1.176-1.438.754-.486 1.745-.486.556 0 1.029.147.479.147.85.428.371.288.614.697.249.409.345.933l2.8-.013q-.109-.901-.543-1.739-.428-.831-1.157-1.489-.722-.652-1.726-1.036-.997-.377-2.256-.377-1.751 0-3.132.793-1.374.793-2.173 2.295-.793 1.502-.793 3.637 0 2.141.805 3.643.805 1.502 2.186 2.288 1.381.793 3.107.793 1.138 0 2.109-.32.978-.32 1.732-.933.754-.607 1.227-1.489.479-.882.614-2.02zm10.072 4.583h2.768V276.8q0-1.432-.684-2.506-.678-1.074-1.898-1.675-1.221-.594-2.844-.594-1.63 0-2.851.594-1.221.601-1.898 1.675-.678 1.074-.678 2.506v8.501h2.768v-8.265q0-.748.326-1.33.332-.582.933-.914.601-.332 1.4-.332.805 0 1.4.332.601.332.927.914.332.582.332 1.33zm13.05 0h2.768V276.8q0-1.432-.684-2.506-.678-1.074-1.898-1.675-1.221-.594-2.844-.594-1.63 0-2.851.594-1.221.601-1.898 1.675-.678 1.074-.678 2.506v8.501h2.768v-8.265q0-.748.326-1.33.332-.582.933-.914.601-.332 1.4-.332.805 0 1.4.332.601.332.927.914.332.582.332 1.33zm5.036 0h3.413l3.605-8.795h.153l3.605 8.795h3.413V272.21h-2.685v8.521h-.109l-3.388-8.457h-1.828l-3.388 8.489h-.109v-8.553h-2.685zm20.7-13.091v13.091h8.668v-2.282h-5.9V279.9h5.325v-2.282h-5.325v-5.408zm18.616 13.091h2.768V276.8q0-1.432-.684-2.506-.678-1.074-1.898-1.675-1.221-.594-2.844-.594-1.63 0-2.851.594-1.221.601-1.898 1.675-.678 1.074-.678 2.506v8.501h2.768v-8.265q0-.748.326-1.33.332-.582.933-.914.601-.332 1.4-.332.805 0 1.4.332.601.332.927.914.332.582.332 1.33z"></path>
        <use xlink:href="#u"></use>
        <path d="M660.752 272.21v13.091h2.768v-10.809h5.612v-2.282z"></path>
      </g>
    </g>
    <g clip-path="url(#Q)">
      <path d="M546.287 415.39h-3.582v11.607h3.741q1.689 0 2.89-.697 1.202-.691 1.842-1.989.64-1.292.64-3.095 0-1.814-.646-3.123-.646-1.304-1.882-2.006-1.236-.697-3.004-.697zm-2.176 1.247h2.086q1.44 0 2.386.555.946.555 1.411 1.581.465 1.026.465 2.443 0 1.406-.459 2.42-.459 1.02-1.372 1.564-.912.55-2.273.55h-2.244z"></path>
      <use xlink:href="#v"></use>
      <path d="M565.85 415.186q-.827 0-1.502.312-.674.317-1.071.912-.397.601-.397 1.451 0 .748.295 1.213.295.47.788.737.493.266 1.088.397.601.136 1.207.215.793.102 1.287.153.499.057.725.187.232.13.232.453v.045q0 .839-.459 1.304-.453.465-1.377.465-.958 0-1.502-.419-.544-.419-.765-.895l-1.27.453q.34.793.907 1.236.572.448 1.247.623.68.181 1.338.181.419 0 .963-.102.55-.096 1.06-.402.516-.306.856-.924.34-.618.34-1.655v-5.736h-1.338v1.179h-.068q-.136-.283-.453-.606-.317-.323-.844-.55-.527-.227-1.287-.227zm.204 1.202q.793 0 1.338.312.55.312.827.805.283.493.283 1.037v1.224q-.085-.102-.374-.187-.283-.079-.657-.142-.368-.057-.72-.102-.346-.04-.561-.068-.521-.068-.975-.221-.448-.147-.725-.448-.272-.295-.272-.805 0-.697.516-1.054.521-.351 1.321-.351zm9.523-1.179q-1.088 0-1.921.55-.833.555-1.304 1.564-.47 1.015-.47 2.397 0 1.372.47 2.38.47 1.009 1.309 1.559.839.55 1.938.55.85 0 1.343-.283.499-.278.759-.635.266-.351.414-.578h.113v4.285h1.338V415.39h-1.292v1.338h-.159q-.147-.238-.419-.601-.272-.357-.776-.64-.504-.278-1.343-.278zm.181 1.202q.805 0 1.36.419.555.425.844 1.173.289.754.289 1.74 0 .975-.283 1.706-.283.737-.839 1.145-.555.414-1.372.414-.85 0-1.417-.436-.561-.431-.844-1.173-.278-.737-.278-1.655 0-.929.283-1.689.289-.754.85-1.202.567-.442 1.406-.442z"></path>
      <use xlink:href="#w"></use>
      <use xlink:href="#x"></use>
      <use xlink:href="#y"></use>
      <use xlink:href="#z"></use>
      <path d="M623.421 415.209q-1.258 0-2.171.555-.907.561-1.4 1.564-.487 1.009-.487 2.346 0 1.338.487 2.358.493 1.026 1.372 1.598.884.578 2.063.578.68 0 1.343-.227.663-.227 1.207-.737.544-.504.867-1.338.323-.833.323-2.052v-.567h-6.71v1.156h5.35q0 .737-.295 1.315-.289.578-.827.912-.533.334-1.258.334-.799 0-1.383-.397-.578-.391-.89-1.02-.312-.629-.312-1.349v-.771q0-.986.34-1.672.346-.68.958-1.037.612-.351 1.423-.351.527 0 .952.147.431.153.742.453.312.306.482.759l1.292-.363q-.204-.657-.686-1.156-.482-.493-1.19-.771-.708-.272-1.593-.272z"></path>
    </g>
    <use xlink:href="#p" x="257.04" y="64.92" class="B H"></use>
    <use xlink:href="#p" x="257.04" y="64.92" class="C D E F"></use>
    <g clip-path="url(#R)">
      <path d="M393.446 415.39v11.607h1.406v-10.36h5.396v-1.247zm8.804 0v8.705h1.338v-8.705zm.68 10.156q-.391 0-.674.266-.278.266-.278.64 0 .374.278.64.283.266.674.266.391 0 .669-.266.283-.266.283-.64 0-.374-.283-.64-.278-.266-.669-.266zm10.285-1.451l-3.219-8.705h-1.36l-3.219 8.705h1.451l2.403-6.937h.091l2.403 6.937zm5.421-8.886q-1.258 0-2.171.555-.907.561-1.4 1.564-.487 1.009-.487 2.346 0 1.338.487 2.358.493 1.026 1.372 1.598.884.578 2.063.578.68 0 1.343-.227.663-.227 1.207-.737.544-.504.867-1.338.323-.833.323-2.052v-.567h-6.71v1.156h5.35q0 .737-.295 1.315-.289.578-.827.912-.533.334-1.258.334-.799 0-1.383-.397-.578-.391-.89-1.02-.312-.629-.312-1.349v-.771q0-.986.34-1.672.346-.68.958-1.037.612-.351 1.423-.351.527 0 .952.147.431.153.742.453.312.306.482.759l1.292-.363q-.204-.657-.686-1.156-.482-.493-1.19-.771-.708-.272-1.593-.272zm9.67 10.541v1.247h8.705v-1.247h-3.65v-10.36h-1.406v10.36zm16.186-6.801v5.146h1.338v-8.705h-1.338v1.474h-.091q-.306-.663-.952-1.128-.646-.459-1.632-.459-.816 0-1.451.357-.635.363-.998 1.088-.363.731-.363 1.842v5.532h1.338v-5.441q0-.952.533-1.519.538-.567 1.372-.567.499 0 1.015.255.521.255.873.782.357.527.357 1.343zm3.707-6.824v11.97h1.292v-1.383h.159q.147.227.408.578.266.357.759.635.499.283 1.349.283 1.1 0 1.938-.55.839-.55 1.309-1.559.47-1.009.47-2.38 0-1.383-.47-2.397-.47-1.009-1.304-1.564-.833-.55-1.921-.55-.839 0-1.343.278-.504.283-.776.64-.272.363-.419.601h-.113v-4.602zm1.315 7.617q0-.986.289-1.74.289-.748.844-1.173.555-.419 1.36-.419.839 0 1.4.442.567.448.85 1.202.289.759.289 1.689 0 .918-.283 1.655-.278.742-.844 1.173-.561.436-1.411.436-.816 0-1.372-.414-.555-.408-.839-1.145-.283-.731-.283-1.706zm9.742 7.255V415.39h-1.338v11.607zm6.143-11.788q-1.258 0-2.171.555-.907.561-1.4 1.564-.487 1.009-.487 2.346 0 1.338.487 2.358.493 1.026 1.372 1.598.884.578 2.063.578.68 0 1.343-.227.663-.227 1.207-.737.544-.504.867-1.338.323-.833.323-2.052v-.567h-6.71v1.156h5.35q0 .737-.295 1.315-.289.578-.827.912-.533.334-1.258.334-.799 0-1.383-.397-.578-.391-.89-1.02-.312-.629-.312-1.349v-.771q0-.986.34-1.672.346-.68.958-1.037.612-.351 1.423-.351.527 0 .952.147.431.153.742.453.312.306.482.759l1.292-.363q-.204-.657-.686-1.156-.482-.493-1.19-.771-.708-.272-1.593-.272z"></path>
    </g>
    <path d="M346.8 412.32h40.68v17.52H346.8z" class="B G"></path>
    <path d="M346.8 412.32h40.68v17.52H346.8z" class="C D E F"></path>
    <g clip-path="url(#S)">
      <path d="M700.786 415.39v11.607h6.96v-1.247h-5.554v-3.922h5.033v-1.247h-5.033v-5.192zm9.187 0v8.705h1.292v-1.315h.091q.238.646.861 1.049.623.402 1.406.402.147 0 .368-.006.221-.006.334-.017v-1.36q-.068.017-.312.051-.238.04-.504.04-.635 0-1.134-.266-.493-.261-.782-.725-.283-.459-.283-1.049v-5.509zm9.619-.181q-1.258 0-2.171.555-.907.561-1.4 1.564-.487 1.009-.487 2.346 0 1.338.487 2.358.493 1.026 1.372 1.598.884.578 2.063.578.68 0 1.343-.227.663-.227 1.207-.737.544-.504.867-1.338.323-.833.323-2.052v-.567h-6.71v1.156h5.35q0 .737-.295 1.315-.289.578-.827.912-.533.334-1.258.334-.799 0-1.383-.397-.578-.391-.89-1.02-.312-.629-.312-1.349v-.771q0-.986.34-1.672.346-.68.958-1.037.612-.351 1.423-.351.527 0 .952.147.431.153.742.453.312.306.482.759l1.292-.363q-.204-.657-.686-1.156-.482-.493-1.19-.771-.708-.272-1.593-.272zm9.241 0q-1.258 0-2.171.555-.907.561-1.4 1.564-.487 1.009-.487 2.346 0 1.338.487 2.358.493 1.026 1.372 1.598.884.578 2.063.578.68 0 1.343-.227.663-.227 1.207-.737.544-.504.867-1.338.323-.833.323-2.052v-.567h-6.71v1.156h5.35q0 .737-.295 1.315-.289.578-.827.912-.533.334-1.258.334-.799 0-1.383-.397-.578-.391-.89-1.02-.312-.629-.312-1.349v-.771q0-.986.34-1.672.346-.68.958-1.037.612-.351 1.423-.351.527 0 .952.147.431.153.742.453.312.306.482.759l1.292-.363q-.204-.657-.686-1.156-.482-.493-1.19-.771-.708-.272-1.593-.272zm16.908 8.886q-.102.861-.827 1.338-.725.476-1.78.476-.771 0-1.349-.249-.572-.249-.895-.686-.317-.436-.317-.992 0-.465.221-.799.227-.329.578-.55.351-.215.737-.357.385-.136.708-.221l1.179-.317q.453-.119 1.009-.329.561-.21 1.071-.572.516-.357.85-.918.334-.561.334-1.377 0-.941-.493-1.7-.487-.759-1.428-1.207-.935-.448-2.273-.448-1.247 0-2.159.402-.907.402-1.428 1.122-.516.72-.584 1.672h1.451q.057-.657.442-1.088.391-.425.986-.635.601-.204 1.292-.204.805 0 1.445.261.64.266 1.015.737.374.476.374 1.111 0 .578-.323.941-.323.363-.85.589-.527.227-1.139.397l-1.428.408q-1.36.391-2.154 1.117-.793.725-.793 1.899 0 .975.527 1.7.533.731 1.428 1.134.901.408 2.012.408 1.122 0 1.995-.402.873-.397 1.383-1.088.516-.691.544-1.57zm4.99 2.902V415.39h-1.338v11.607zm6.046-11.788q-1.179 0-2.069.561-.884.561-1.383 1.57-.493 1.009-.493 2.358 0 1.36.493 2.375.499 1.015 1.383 1.576.89.561 2.069.561 1.179 0 2.063-.561.89-.561 1.383-1.576.499-1.015.499-2.375 0-1.349-.499-2.358-.493-1.009-1.383-1.57-.884-.561-2.063-.561zm0 1.202q.895 0 1.474.459.578.459.856 1.207.278.748.278 1.621 0 .873-.278 1.627-.278.754-.856 1.219-.578.465-1.474.465-.895 0-1.474-.465-.578-.465-.856-1.219-.278-.754-.278-1.627 0-.873.278-1.621.278-.748.856-1.207.578-.459 1.474-.459zm9.729 7.684v-1.134h-4.511v1.134zm-3.197 2.086h1.338v-8.297q0-.567.164-.85.17-.278.431-.374.266-.091.561-.091.221 0 .363.023.142.028.227.045l.272-1.202q-.136-.051-.38-.102-.244-.057-.618-.057-.567 0-1.111.244-.538.244-.895.742-.351.499-.351 1.258z"></path>
    </g>
    <use xlink:href="#t" x="118.44" y="216.24" class="B J"></use>
    <use xlink:href="#t" x="118.44" y="216.24" class="C D E F"></use>
  </g>
</svg>
